<svg id="ea9e54d2-2e88-43e5-bdc9-71d154c17500" data-name="Layer 1" xmlns="http://www.w3.org/2000/svg" width="865.76" height="682.89" viewBox="0 0 865.76 682.89"><rect x="387.48" y="367.17" width="10.02" height="296.33" fill="#d1d3d4"/><rect x="76.84" y="367.17" width="10.02" height="296.33" fill="#d1d3d4"/><rect x="38.19" y="354.29" width="390.1" height="17.18" rx="8.59" fill="#bcbec0"/><rect x="212.83" y="416.56" width="148.88" height="238.35" fill="#544dcf"/><rect x="217.84" y="421.57" width="139.58" height="227.62" fill="#fff" opacity="0.6"/><rect x="229.26" y="434.19" width="117.71" height="44" fill="#544dcf"/><rect x="231.83" y="437.04" width="112.29" height="37.71" fill="#fff" opacity="0.6"/><rect x="229.12" y="486.47" width="117.71" height="44" fill="#544dcf"/><rect x="231.69" y="489.33" width="112.29" height="37.71" fill="#fff" opacity="0.6"/><rect x="229.05" y="539.9" width="117.71" height="44" fill="#544dcf"/><rect x="231.62" y="542.76" width="112.29" height="37.71" fill="#fff" opacity="0.6"/><rect x="228.9" y="592.19" width="117.71" height="44" fill="#544dcf"/><rect x="231.48" y="595.04" width="112.29" height="37.71" fill="#fff" opacity="0.6"/><rect x="272.98" y="452.76" width="28.29" height="6.57" fill="#544dcf"/><rect x="273.49" y="505.76" width="28.29" height="6.57" fill="#544dcf"/><rect x="273.76" y="558.61" width="28.29" height="6.57" fill="#544dcf"/><rect x="273.76" y="611.47" width="28.29" height="6.57" fill="#544dcf"/><path d="M93.91,354.29v-5.14h59.63l16.82-62.69a13.44,13.44,0,0,1,13-9.94h77.19a7.86,7.86,0,0,1,7.57,10L250.7,348.59a7.81,7.81,0,0,1-7.51,5.7Z" fill="#2f2e41"/><path d="M162,351.06h81.27a4.7,4.7,0,0,0,4.52-3.46l17.14-63a4.29,4.29,0,0,0-4.14-5.42H185.08a12.71,12.71,0,0,0-12.26,9.37l-15.38,56.63A4.69,4.69,0,0,0,162,351.06Z" opacity="0.2"/><polygon points="502.91 119.61 496.72 122.06 503.94 167.5 505.02 243.66 560.25 243.66 557.58 169.96 541.61 124.11 535.06 122.06 502.91 119.61" fill="#e6e7e8"/><path d="M634.94,71.44s5.72-5.49,9.46-3.3c0,0-2.75-.77-4,3.3Z" fill="#2f2e41"/><path d="M634.94,71.44s5.72-5.49,9.46-3.3c0,0-2.75-.77-4,3.3Z" opacity="0.2"/><path d="M622.67,303H608s-2.69-6.82,9-7.26c0,0,12.68-5,12.34-10l-2.66-74,14.68,5.76L638.61,303Z" fill="#544dcf"/><path d="M622.67,303H608s-2.69-6.82,9-7.26c0,0,12.68-5,12.34-10l-2.66-74,14.68,5.76L638.61,303Z" opacity="0.3"/><path d="M694,134.55s-.76-7-5.46,0l-2.79,6.75S691.68,153,694,162c0,0,11.12-16,4.77-15.29,0,0,8.6-14.44-.61-10.55,0,0,3.48-3.69,2-6.76C700.24,129.43,697,126.57,694,134.55Z" fill="#f9b499"/><polyline points="504.45 410.82 454.31 620.67 434.32 614.32 447.04 450.8 458.85 419.91" fill="#f9b499"/><polygon points="505.02 243.66 560.25 243.66 576.89 437.17 473.86 437.17 500.28 247.74 505.02 243.66" fill="#2f2e41"/><path d="M496.72,122.06l-16.4,5.63s-20.58.92-34.5,50.87c0,0-22.11,48.3-8.19,54.44,0,0,9.42,1.64,31.93-1.63L517.05,226V203.12l-44.74,1.64,6.26-15.15,4.09,4.91s1.23,36.85-.41,44.22c0,0-30.7,42.16-37.66,117.49,0,0-11.87,67.13-13.92,106h45.85l13.92-103.16s14.33-62.63,14.74-104.8l-1.24-86.79Z" fill="#544dcf"/><path d="M496.72,122.06l-16.4,5.63s-20.58.92-34.5,50.87c0,0-22.11,48.3-8.19,54.44,0,0,9.42,1.64,31.93-1.63L517.05,226V203.12l-44.74,1.64,6.26-15.15,4.09,4.91s1.23,36.85-.41,44.22c0,0-30.7,42.16-37.66,117.49,0,0-11.87,67.13-13.92,106h45.85l13.92-103.16s14.33-62.63,14.74-104.8l-1.24-86.79Z" fill="#fff" opacity="0.8"/><polygon points="483.07 127.34 500.28 172.42 491.06 189.61 504.45 203.58 503.94 167.5 496.72 122.06 483.07 127.34" fill="#544dcf"/><polygon points="541.61 124.11 555.33 129.43 560.25 172.01 567.81 185.52 559.09 211.71 557.58 169.96 541.61 124.11" fill="#544dcf"/><path d="M575.18,142.94s-4.09-11.46-19.85-13.51L560.26,172l7.55,13.51-8.72,26.19,1.17,31.95s4.89,48.71,5,57.71H589.1s-4.07-37.73-13.62-58a22.06,22.06,0,0,1-2-7.16c-1.09-11.07-3.42-39.92,2.9-32.64,0,0,8.59,28.61,22.1,29,0,0,16,2,34.39-20.88l-5-30.08-10.13,5.7a10.64,10.64,0,0,1-13.94-3.2Z" fill="#544dcf"/><path d="M575.18,142.94s-4.09-11.46-19.85-13.51L560.26,172l7.55,13.51-8.72,26.19,1.17,31.95s4.89,48.71,5,57.71H589.1s-4.07-37.73-13.62-58a22.06,22.06,0,0,1-2-7.16c-1.09-11.07-3.42-39.92,2.9-32.64,0,0,8.59,28.61,22.1,29,0,0,16,2,34.39-20.88l-5-30.08-10.13,5.7a10.64,10.64,0,0,1-13.94-3.2Z" fill="#fff" opacity="0.8"/><path d="M579.82,96.64s-9.28-18.38,4.91-21.11l21.5,2a4.18,4.18,0,0,0,2.58-.6c2.64-1.61,9.43-5.33,16-5.54h15.56s26.2,4.91,24.56,27.29c0,0-.82,12.28,4.64,19.1l14.46,21s6.68,7.82,10.73,26.43a51.87,51.87,0,0,0,5,13.81c3,5.53,7.6,12.44,13.45,16.52,0,0,33.56,27.84,43.12,64.41a178.25,178.25,0,0,1,4.09,29.75s26.75,5.46,40.12-37.93c0,0,8.73-30,8.73-40.67,0,0,9.28,10.92,13.1,35.21,0,0-4.64,8.73-7.64,10.64,0,0,5.19-.27,7.64-3.82,0,0,0,28.11-13.1,32.75,0,0,2.19,2.46,4.91,1.91,0,0-4.91,16.51-43.94,15l-147.64.1s.82-12.11,19.65-8l31.11-5.46s-3.55-22.65,1.91-27L638.5,219.63s-11.74,4.37-22.11-2.45l-26.75-9.28s-12.28,13.92-21.83,7.5c0,0-6-7,1.91-15.15,0,0,9.83-16.1,19.38-10.64l29.75,10.64,6.82-8.46s-3-19.65.27-36.29c0,0,3.28-23.2-7.37-29.75L588,104.5S581.58,101.12,579.82,96.64Z" fill="#544dcf"/><path d="M577.21,82s9.91-1.9,3.8-5.14l3.23-1.16a2.31,2.31,0,0,1,1-.13l1.08.1S574.84,68.44,577.21,82Z" fill="#2f2e41"/><path d="M580.56,98.07a111.54,111.54,0,0,1,11.41-.5l2.85,0a8.33,8.33,0,0,1,2.94.46,6.28,6.28,0,0,1,2.48,1.63,5.23,5.23,0,0,1,1.28,2.6,5.93,5.93,0,0,0-4-3.49,8.36,8.36,0,0,0-2.7-.25l-2.85,0C588.16,98.55,584.36,98.46,580.56,98.07Z" opacity="0.2"/><path d="M606,77.55s-5.24,15.08,8.63,15.62a6.75,6.75,0,0,1,7,2.34s4.86,5.94,9.18-3.06c0,0,8.29-16.79,13.6-19.92a13.52,13.52,0,0,0-4-1.09H624.85A34.52,34.52,0,0,0,608.77,77a4.07,4.07,0,0,1-2.57.6Z" opacity="0.2"/><path d="M640.34,105.16c-1.33-2.29-2.86-7.57-2-19.55,0,0-.22-19.27,6-17.47a28,28,0,0,1,8.44,6.25,5.52,5.52,0,0,0,3.83,1.68c4.1.07,12.3.58,12.3,3.41,0,0,0,5.22-6.66,12.61,0,0-10.85,12.24-18.6,14.46A3,3,0,0,1,640.34,105.16Z" fill="#2f2e41"/><path d="M609.74,119.61s20.38,4.07,19.16,17.75c0,0,17,2.68,6,26.62,0,0-1.53,4.89,0,8.8,0,0,1.88,5.74-7.09,8.85,0,0,4.6,7.2-2.18,10.16,0,0-2.69-18.15.27-36.29,0,0,2.82-25.48-7.37-29.75Z" opacity="0.2"/><path d="M657,148.35s11.48-8.79,14.17,0c0,0,1.37,3.23.43,11.41a3.11,3.11,0,0,0,2.61,3.43c3.67.58,9.34,1.92,9.17,4.72,0,0,.18,6.64-8,5.26a16.45,16.45,0,0,1-8.82-4.73,47.46,47.46,0,0,0-6.64-5.62S647,156.17,657,148.35Z" opacity="0.2"/><path d="M572.22,217S582.4,201,591,205L620.21,217s8.95,4.27,18.4-3.07l11.79-9.65s-8.66,12-6,17l3.56,9.34-9.46-11a27.5,27.5,0,0,1-22.11-2.45l-26.75-9.28S579.79,218.76,572.22,217Z" opacity="0.2"/><path d="M675.34,262.48s11.5-12.66,20.86-4.07a14.23,14.23,0,0,1,3.9,6.44c1.93,6.46,8.21,23.6,19.37,19.52,0,0,29-10,27,18.52L622.67,303s-.11-11.77,19.65-8l31.11-5.46S670.92,269.62,675.34,262.48Z" opacity="0.2"/><path d="M668.28,254.27s7.81-15.28,22.16-16.62c0,0-18.19,14.62-15.1,24.83Z" opacity="0.2"/><path d="M694,175.92s-7.53-13.09-7.23-32.91c0,0,4.67,6.62,8,22.27,0,0,4.05,17.58,15.27,27.71,0,0,31,25.7,43.58,58.37A109.17,109.17,0,0,0,731.81,245s-10-1.43-8.3-13.1a18.61,18.61,0,0,0-.61-8.58c-1.53-4.7-4.9-10.75-12.11-11.6,0,0-14.39,1.36-21.67-4.74a11.39,11.39,0,0,1-3.55-5.76C684.31,196.54,683.74,187.05,694,175.92Z" opacity="0.2"/><path d="M589.1,189.61s4.53,8.89.54,18.29l26.75,9.28s4.27-8.94,2.46-16.93Z" fill="#e6e7e8"/><path d="M552,206.06S576.39,238.65,591,221a26.67,26.67,0,0,0,4.52-11l12.19,4.23s-6.27,22.14-30.86,21.8a31,31,0,0,1-23-13.76l-15.16-11.93v-6.9Z" fill="#e6e7e8"/><path d="M502.91,82v40.05s17.41,11.88,32.15,0V96.68Z" fill="#f9b499"/><path d="M511,96.64s4.87,15.19,24.11,13.55V96.68Z" fill="#f7a48b"/><ellipse cx="528.21" cy="69.2" rx="27.12" ry="35.56" fill="#f9b499"/><path d="M513.77,43.05s13.29,10.39,38,8.47c0,0,7.92,15.72,0,35.35,0,0,16.48-21.3,3.59-47.5,0,0-16.6-27.43-51.39-18,0,0-34.79,9-25.78,50.76,0,0-22.11,1.23-29.48,28.66,0,0-16.37,57.72-48.3,58.95l2.45,11.05s42.17-13.1,50.36-56.49c0,0-.41,50.35-38.89,66.72l16,8.6s11.87-6.14,15.56-11.05l10.64-27.43s10.24-23,26.61-23.79l9.83-3.64s-1.2-26.61,7.38-24.56l2.63,1.23V73.75S515,54.11,513.77,43.05Z" fill="#2f2e41"/><ellipse cx="497.5" cy="74" rx="6.44" ry="8.02" fill="#f9b499"/><circle cx="500.28" cy="81.28" r="3.56" fill="#544dcf"/><rect x="488.32" y="316.86" width="323.25" height="338.74" fill="#d1d3d4"/><rect x="488.32" y="316.86" width="323.25" height="23.75" fill="#bcbec0"/><path d="M694,134.55a30.75,30.75,0,0,1-1.56,5.64,29.28,29.28,0,0,1-2.49,5.29,30.75,30.75,0,0,1,1.56-5.64A30,30,0,0,1,694,134.55Z" fill="#f7a48b"/><path d="M698.2,136.19a31.62,31.62,0,0,1-1.62,5.71,30.94,30.94,0,0,1-2.54,5.37,35,35,0,0,1,4.16-11.08Z" fill="#f7a48b"/><path d="M698.81,146.74a22.54,22.54,0,0,1-1.9,4.71,22.09,22.09,0,0,1-2.79,4.25,25.77,25.77,0,0,1,4.69-9Z" fill="#f7a48b"/><path d="M517.05,206s3.7.72,6-1.64c0,0,3.59-6,16.94-4.7,0,0,22.93-1.28,20.31,4.7,0,0-.62,2.18-8.3,1.75l-7.13,0a1.39,1.39,0,0,0-1.36,1.55h0a1.37,1.37,0,0,0,1.41,1.22c3.15-.12,11,.2,9.83,6.53,0,0,3.59,7.9-6.75,9.57L517.05,226Z" fill="#f9b499"/><rect x="472.31" y="301.37" width="355.27" height="19.62" rx="9.81" fill="#a7a9ac"/><path d="M568.37,597.24a8,8,0,0,1-8,8H391.18a7.81,7.81,0,1,1,0-15.62h2.07l23.66-64.11a6.36,6.36,0,0,1,6-4.15h109.3a6.35,6.35,0,0,1,6,4.39l20.59,63.55h1.59A8,8,0,0,1,568.37,597.24Z" fill="#544dcf"/><path d="M489.9,499.62H465a16,16,0,0,0-15.95,16v5.74h8.61v-8.46a5.27,5.27,0,0,1,5.26-5.26h28.72a5.27,5.27,0,0,1,5.26,5.26v8.46h8.93v-5.74A16,16,0,0,0,489.9,499.62Z" fill="#544dcf"/><path d="M489.9,499.62H465a16,16,0,0,0-15.95,16v5.74h8.61v-8.46a5.27,5.27,0,0,1,5.26-5.26h28.72a5.27,5.27,0,0,1,5.26,5.26v8.46h8.93v-5.74A16,16,0,0,0,489.9,499.62Z" opacity="0.2"/><rect x="472.67" y="529.29" width="9.89" height="54.23" rx="4.94" opacity="0.2"/><rect x="502.66" y="529.29" width="9.89" height="54.23" rx="4.94" transform="translate(-59.07 60.29) rotate(-6.42)" opacity="0.2"/><rect x="442.28" y="528.68" width="9.89" height="54.23" rx="4.94" transform="translate(829.45 1158.14) rotate(-173.58)" opacity="0.2"/><rect x="419.44" y="528" width="9.89" height="54.23" rx="4.94" transform="translate(699.33 1197.5) rotate(-165.77)" opacity="0.2"/><path d="M532.57,655.61H422.91a8,8,0,0,1-7-4.22l-24.7-46.19H559.12l-19.35,45.64A7.83,7.83,0,0,1,532.57,655.61Z" fill="#bcbec0"/><rect x="525.5" y="528.61" width="9.89" height="54.23" rx="4.94" transform="translate(-120.3 147.4) rotate(-14.23)" opacity="0.2"/><path d="M623.14,509.64c7.5-12.9-21.5-31-24.55-20.11a10.72,10.72,0,0,0,.68,9.5C604.94,508.49,617.28,519.71,623.14,509.64Z" fill="#bcbec0"/><path d="M630.78,494.56c7.88,7.05,13.92,2.24,15.57-5.23,1.52-6.89-3.25-17.78-9.27-23.21-6.84-6.18-11.37-1.65-13.48,3.57-.25.63-.47,1.27-.65,1.9C620.46,480.15,622.79,487.41,630.78,494.56Z" fill="#bcbec0"/><path d="M672.07,491.08c5.3-4.72,8.25-17.1,4.71-23.58-3.33-6.66-11.35-7.57-15.23-1.27C652.75,475.71,656.44,506.13,672.07,491.08Z" fill="#bcbec0"/><path d="M696,488.14c-13.92-.61-32,28.57-9,24.12C699.51,509.86,710.76,485.89,696,488.14Z" fill="#bcbec0"/><path d="M668.53,512.89c-3.54-3.54-8-12.38-14.44-13s-11.2,8.54-14.74,11.49c-5,4.17-11.93,6.85-16.8,11.2-4.42,3.95-5.36,13.83,2.36,17.39,11.49,5.31,16.54-2.59,22.1-3.24,10-1.18,23.72,8.64,32.13,2.36C700.07,523.5,673.84,520,668.53,512.89Z" fill="#bcbec0"/><path d="M650.4,573.26a71.36,71.36,0,1,1,71.36-71.36A71.45,71.45,0,0,1,650.4,573.26Zm0-140.95A69.59,69.59,0,1,0,720,501.9,69.67,69.67,0,0,0,650.4,432.31Z" fill="#bcbec0"/><path d="M564.76,369.7l-10.13,18.41h-1.87L542.63,369.7h1.88l9.23,16.75L563,369.7Z" fill="#bcbec0"/><path d="M569.45,371.11v7.33h15.13v1.41H569.45v6.85h16.26v1.41H567.86V369.7h17.85v1.41Z" fill="#bcbec0"/><path d="M606.39,371.17h-9v16.94h-1.59V371.17h-9V369.7h19.51Z" fill="#bcbec0"/><path d="M611.06,371.11v7.33h15.12v1.41H611.06v6.85h16.26v1.41H609.46V369.7h17.86v1.41Z" fill="#bcbec0"/><path d="M651.1,388.11h-1.75a11.05,11.05,0,0,1-.12-1.72v-3.07c0-2.18-1.32-3.1-4.94-3.1H634v7.89h-1.66V369.7h11.91c4.69,0,6.66,1.72,6.66,4.72v.74c0,2.12-.77,3.5-2.52,4.27a3.77,3.77,0,0,1,2.52,3.89v2.95A11.42,11.42,0,0,0,651.1,388.11Zm-6.81-9.48c3.62,0,5-.95,5-3.47v-.74c0-2.18-1.38-3.19-5-3.19H634v7.4Z" fill="#bcbec0"/><path d="M657.05,369.7h1.6v18.41h-1.6Z" fill="#bcbec0"/><path d="M685.62,369.7v18.41h-2.15l-16.23-16.76v16.76h-1.6V369.7h2.15L684,386.45V369.7Z" fill="#bcbec0"/><path d="M707.28,384.49H692.76l-2,3.62H689l10.12-18.41H701l10.12,18.41h-1.81Zm-.83-1.54L700,371.29,693.59,383Z" fill="#bcbec0"/><path d="M733.14,388.11h-1.75a11.05,11.05,0,0,1-.12-1.72v-3.07c0-2.18-1.32-3.1-4.94-3.1H716.08v7.89h-1.65V369.7h11.9c4.7,0,6.66,1.72,6.66,4.72v.74c0,2.12-.77,3.5-2.52,4.27a3.77,3.77,0,0,1,2.52,3.89v2.95A11.42,11.42,0,0,0,733.14,388.11Zm-6.81-9.48c3.62,0,5-.95,5-3.47v-.74c0-2.18-1.38-3.19-5-3.19H716.08v7.4Z" fill="#bcbec0"/><path d="M757.6,369.7,747,381.36v6.75h-1.59v-6.78L734.86,369.7H737l9.17,10.15,9.21-10.15Z" fill="#bcbec0"/><path d="M591.76,407.74v-1.35c0-5.53,3.59-8.84,11.69-8.84,7.12,0,11.32,2.58,11.6,6.93h-1.72c-.28-3.53-4-5.4-9.88-5.4-6.91,0-10,2.52-10,7.31v1.35c0,4.78,3.13,7.3,10,7.3,6,0,9.33-2,9.85-5.68H615c-.53,4.51-4.33,7.21-11.57,7.21C595.35,416.57,591.76,413.26,591.76,407.74Z" fill="#bcbec0"/><path d="M622.29,414.85h15.34v1.42H620.69V397.85h1.6Z" fill="#bcbec0"/><path d="M642.05,397.85h1.59v18.42h-1.59Z" fill="#bcbec0"/><path d="M670.61,397.85v18.42h-2.15l-16.23-16.76v16.76h-1.59V397.85h2.14L669,414.61V397.85Z" fill="#bcbec0"/><path d="M677.61,397.85h1.59v18.42h-1.59Z" fill="#bcbec0"/><path d="M684.85,407.74v-1.35c0-5.53,3.59-8.84,11.69-8.84,7.12,0,11.32,2.58,11.6,6.93h-1.72c-.28-3.53-4-5.4-9.88-5.4-6.91,0-10,2.52-10,7.31v1.35c0,4.78,3.13,7.3,10,7.3,6,0,9.33-2,9.85-5.68h1.72c-.53,4.51-4.33,7.21-11.57,7.21C688.44,416.57,684.85,413.26,684.85,407.74Z" fill="#bcbec0"/></svg>