<svg id="fae37c85-6b69-42bb-bd76-0fd4930b5c7e" data-name="Layer 1" xmlns="http://www.w3.org/2000/svg" width="865.76" height="682.89" viewBox="0 0 865.76 682.89"><path d="M379.23,140c-9.14-10.19-22.19-11.95-33-11.16,0,0,17.81-52.51,27.07-43.75C373.33,85,388.64,103.21,379.23,140Z" fill="#544dcf"/><path d="M379.23,140c-9.14-10.19-22.19-11.95-33-11.16,0,0,17.81-52.51,27.07-43.75C373.33,85,388.64,103.21,379.23,140Z" fill="#fff" opacity="0.5"/><path d="M360,509.51s-9.11,2.54-9.11-21.25c0,0-2.53-30.44-11.13-40.27l-5.06-28.7,45.43-45.2v83.3s.11,37.95,6.69,47.57c0,0,5.06,12.65,14.68,21.76,0,0,16.48.62,17.85,21.06H369.62Z" fill="#544dcf"/><path d="M360,509.51s-9.11,2.54-9.11-21.25c0,0-2.53-30.44-11.13-40.27l-5.06-28.7,45.43-45.2v83.3s.11,37.95,6.69,47.57c0,0,5.06,12.65,14.68,21.76,0,0,16.48.62,17.85,21.06H369.62Z" fill="#fff" opacity="0.5"/><path d="M283.51,456.19s3.7,34.92-65.67,67.65l52.33-3.71s50.87-21.64,41.76,27.65H271.45L161.12,529.25V480.67L270.94,448Z" fill="#544dcf"/><path d="M283.51,456.19s3.7,34.92-65.67,67.65l52.33-3.71s50.87-21.64,41.76,27.65H271.45L161.12,529.25V480.67L270.94,448Z" fill="#fff" opacity="0.5"/><path d="M418.61,175.38s1,18.17-16.19,24.12l-24.78,11.9,6.94,23.79s21.48,68.4,8.92,103.75c0,0-13.88,55.18-49.89,83.27l1.65,73.69s8.25,22.47,16.52,29.41c0,0,17.84,2.64,17.84,14.54l.33,7.93H332.37s-9.58-29.08-8.59-35c0,0-11.24-2.31-10.24-23.13,0,0-.67-25.77-10.91-41.63,0,0-37.15,15-60.47,29.17a8.76,8.76,0,0,0-2.95,3c-3.55,5.92-17.66,25.76-54.87,41.86,0,0,.65,9.92,35.68,1.32,0,0,45.27-15.19,53.2.33,0,0,5.62,6.29,3.64,24.13H116.27s-8.59-3.64-6.28-15.86c0,0-46.26-27.1-47.26-95.17,0,0-2.64-75,69.73-93.18,0,0-64.11,42-51.55,104.09,0,0,4.29,37.67,34.69,59.8,0,0-7.71-72.91,46.93-131.95l50.66-48.9s55.74-48.47,68.95-77.54l-2.2-1.11,3.74-14.09,2.43.66,4.63-53.31s-6.83-4.4-7.71-19.38c0,0-15.65-42.3-9.48-72.26,0,0,1.08-1.3,7.62,2.16A52,52,0,0,1,299,107.38c2.46,3.4,5.6,7.89,9.32,13.48a33,33,0,0,0,10.36,7.49,16.65,16.65,0,0,1,8.16,4.6,73.23,73.23,0,0,1,19.39-4.16c10.78-.79,23.83,1,33,11.16h0a36.88,36.88,0,0,1,5.76,8.72s22.89-.45,26.54,5C411.53,153.71,422.25,159.85,418.61,175.38Z" fill="#544dcf"/><path d="M282.14,249.07,277,258.26s62.16,20.94,108.16-6.35Z" opacity="0.1"/><path d="M590.09,284l-23.26,13.17s-14.46,8.86-41.09,1.35l-19.69-5h0l-67.3-17a17.77,17.77,0,0,0-12.47,1.38c-10.22,5.23-31,14-34.57,1.29l-5.67-26,9.41-8.32a4.68,4.68,0,0,0-.35-7.31,12.41,12.41,0,0,0-6.7-1.93s-27,2.38-21.76-10.87h29.8s17-1,29.34,11.82c0,0,9.27,9,17,12.3,0,0,11.6,8,54.53,9.94l33.88,3.31s12.11,3.83,25.71-6.63l9.91-7.48s19.13,7.72,22.92,32.21l0,.24C589.93,281.65,590,282.81,590.09,284Z" fill="#f9b499"/><path d="M590.09,284l-23.26,13.17s-14.46,8.86-41.09,1.35l-19.69-5c1.05,0,70-.5,82.72-17.91a43.18,43.18,0,0,1,1,4.63l0,.24A27.09,27.09,0,0,1,590.09,284Z" fill="#f7a48b"/><path d="M449.9,500.35s33.61-101.51,47.43-119c0,0,17.44,10.19,33.87,47.5a105,105,0,0,1-2.51,15.29,64.15,64.15,0,0,1-6.55,16.67l-31.59,56.33s-5.59,1.42-8.3,16.24c0,0-17.1-16.1-21.76-16.1C460.49,517.29,468.53,505.86,449.9,500.35Z" fill="#f9b499"/><path d="M465.86,454.46s44.91-.74,46.24,24.27l-21.55,38.42s-6.44,3.54-8.3,16.24l-21.76-16.1s7.2-11-10.59-16.94q3.44-10.55,7.18-21.35Q461.42,466.46,465.86,454.46Z" fill="#e6e7e8"/><path d="M482.26,533.39,449.9,582.5l-16.14,9.88L414,604.47a84.44,84.44,0,0,1-45.16-4.91A14,14,0,0,1,360.08,586a21.25,21.25,0,0,1,.28-2.46c2.38-13.59,17.56-20,17.56-20,22-14,44.88-48.14,44.88-48.14,11.44-18.07,27.1-15,27.1-15,17.79,4.24,10.59,16.94,10.59,16.94a60,60,0,0,1,21.77,16.1Z" fill="#544dcf"/><path d="M433.76,592.38l.48-4.38c-38.38,10.79-70.43-2.94-73.88-4.51,0,0-5.72,17,20.89,20.14,1,.12,2,.3,3,.51,3.77.79,14.47,2.47,30.3.43Z" fill="#2f2e41"/><path d="M382.77,560.06a56.46,56.46,0,0,0,11.86,3.36,53.09,53.09,0,0,0,12.26.77,44.62,44.62,0,0,0,12-2.28,41.42,41.42,0,0,0,10.81-5.64l-.06.05c2.93-2.86,6-5.59,9.05-8.27s6.24-5.29,9.53-7.72a120.37,120.37,0,0,1,10.12-6.91,58.23,58.23,0,0,1,11-5.29,61.66,61.66,0,0,0-10.77,5.71c-3.44,2.17-6.71,4.6-9.92,7.1s-6.34,5.11-9.39,7.8-6.06,5.44-8.95,8.29l0,0,0,0a42,42,0,0,1-11.1,5.69A42.8,42.8,0,0,1,406.92,565a53,53,0,0,1-12.38-1.06A53.69,53.69,0,0,1,382.77,560.06Z" fill="#fff"/><polygon points="426.07 520.26 437.2 507.98 452.02 509.74 441.86 522.8 426.07 520.26" fill="#fff"/><path d="M479.16,375.36s-2.06,14.58,3.09,36.35c0,0,8.75-23,15.08-30.35C497.33,381.36,494.68,370.3,479.16,375.36Z" fill="#2f2e41"/><path d="M653,527.33s-22.33,7.31-50.63-22.34L546.46,432.9,502,346s37.83-63.33,75.51-24.25L599.69,348,648.2,454.46Z" fill="#2f2e41"/><path d="M653,527.33s-22.33,7.31-50.63-22.34L546.46,432.9,502,346s37.83-63.33,75.51-24.25L599.69,348,648.2,454.46Z" opacity="0.3"/><path d="M479.16,375.36s8.65-2.37,18.17,6c0,0,15.62,9.61,33.87,47.5,0,0-.08,8.48-4.1,20.82,0,0,1.93,2,12.64-9.46l23-26.32S549.49,362.38,502,346Z" fill="#2f2e41"/><path d="M479.16,375.36s8.65-2.37,18.17,6c0,0,15.62,9.61,33.87,47.5,0,0-.08,8.48-4.1,20.82,0,0,1.93,2,12.64-9.46l23-26.32S549.49,362.38,502,346Z" opacity="0.2"/><path d="M566.83,248.06S588,256.52,590.09,284c0,0,42.46-31.42,54.53-30.78,0,0-22.29,36.06-2.2,64.08,0,0,37,21.68,55,56,0,0,45.33,1.69,81.41,15.33,0,0-6.35-35.42,9-66.08,0,0,23.19-63.65,12.22-102.4a29.44,29.44,0,0,0-9.19-14.43c-5.29-4.52-13.7-10.3-23.6-12l-73.45-8.36s-27.39,8.5-49.15,9.12c0,0-24.09.9-47.66,29.17Z" fill="#544dcf"/><path d="M733.87,149.21l-15.43-2.82-3.81,2.82L692.11,182l5.29,11.11s-18.09,24.11-15.56,43.43a17.87,17.87,0,0,0,26.3,13.23c7.79-4.22,17.55-13.29,27.32-32.35a251,251,0,0,1,25.37-28s-27.48-28.57-27-40.2" fill="#f9b499"/><path d="M697.4,193.09,692.11,182l26.33-35.59S718.08,181.45,697.4,193.09Z" fill="#f7a48b"/><ellipse cx="679.95" cy="139.71" rx="35.33" ry="49.7" fill="#f9b499"/><path d="M645,146.39s-17.86-17.27-11-45.81c0,0,2.12-45.47,55.51-53.92,0,0,57.09-13.75,76.65,46.52,0,0,4.71,17.89,5.68,31.46a20.6,20.6,0,0,0,1.62,6.73c1.28,2.94,3.49,6.6,7,8.34,0,0,16.92,12.67,6.87,33.29a17.58,17.58,0,0,0,1.06,13.74s-29.6,13.22-47.57,8.46c0,0,3.7-4.23-3.7-15.33,0,0-9.63-20.3-3.18-30.66,0,0-1.86,4.72-9.29,3.15,0,0-3.87-.65-6.14-6,0,0-17.44,42.69,5.65,49.84,0,0-15.21,3.24-17-21.66a19.84,19.84,0,0,1,.38-5.38c1.06-5.22,3.41-17.52,3.9-26.31a9,9,0,0,0-3.76-7.82c-5.33-3.79-14.82-11.74-18.44-22.33,0,0-7.14,7.14-13.09.8,0,0-7.53,8.67-15.06,7.31,0,0-4.36,3.74-10.71,0C650.35,120.84,642.31,125.33,645,146.39Z" fill="#2f2e41"/><path d="M650.35,120.84a35.45,35.45,0,0,1-4.63-12.35,39.68,39.68,0,0,1-.17-13.27,40.85,40.85,0,0,1,1.63-6.47c.32-1.06.78-2.08,1.17-3.11s.89-2,1.44-3l.79-1.46.87-1.42c.55-1,1.21-1.85,1.83-2.76s1.35-1.75,2-2.62,1.45-1.66,2.18-2.48a61.76,61.76,0,0,0-7,11.08,43.16,43.16,0,0,0-3.94,12.39,41,41,0,0,0-.07,13,42.37,42.37,0,0,0,1.45,6.38A35.9,35.9,0,0,0,650.35,120.84Z" opacity="0.2"/><path d="M661.06,120.84A52.39,52.39,0,0,1,657,107.69a58.41,58.41,0,0,1-.73-13.79,58.41,58.41,0,0,1,1-6.86,49.15,49.15,0,0,1,1.93-6.65,47.22,47.22,0,0,1,6.63-12.06,61.63,61.63,0,0,0-3.32,6,50,50,0,0,0-2.58,6.31,60.22,60.22,0,0,0-1.76,6.58,56.94,56.94,0,0,0-.89,6.75,61.31,61.31,0,0,0,.49,13.6,63.6,63.6,0,0,0,1.31,6.71A54.45,54.45,0,0,0,661.06,120.84Z" opacity="0.2"/><path d="M676.12,113.53a20.87,20.87,0,0,1-3.25-4.88c-.47-.86-.8-1.79-1.2-2.69s-.66-1.85-1-2.78a50.21,50.21,0,0,1-2-11.6,72,72,0,0,1,.4-11.75c.27-1.94.59-3.87.9-5.8s.87-3.81,1.34-5.7c-.25,1.94-.57,3.86-.85,5.78s-.44,3.87-.63,5.8a81.84,81.84,0,0,0-.16,11.61,54.7,54.7,0,0,0,1.7,11.45c.28.92.54,1.86.84,2.77s.64,1.83,1,2.71A23,23,0,0,0,676.12,113.53Z" opacity="0.2"/><path d="M689.21,112.73a27.32,27.32,0,0,1-6.91-9.08,42.15,42.15,0,0,1-3.5-11l-.4-2.86c-.1-1-.12-1.91-.19-2.87a50.14,50.14,0,0,1,0-5.75c.11-1.91.4-3.8.59-5.7.37-1.87.74-3.75,1.15-5.6-.19,1.9-.46,3.78-.66,5.66s-.3,3.78-.31,5.67-.08,3.79.14,5.67c.08.94.12,1.88.23,2.81l.44,2.8a44.66,44.66,0,0,0,3.2,10.79c.4.85.77,1.73,1.25,2.54l.68,1.24.76,1.19A25.51,25.51,0,0,0,689.21,112.73Z" opacity="0.2"/><path d="M689.21,80.22A68.67,68.67,0,0,1,698,93.64a124.21,124.21,0,0,1,6.31,14.79l1.27,3.82c.4,1.27.75,2.57,1.13,3.85.78,2.57,1.39,5.18,2,7.79s1,5.25,1.58,7.87.78,5.3,1.13,8l-1.61-7.85c-.63-2.6-1.15-5.22-1.85-7.79s-1.3-5.17-2.12-7.71c-.4-1.27-.75-2.56-1.17-3.82l-1.3-3.78A138.5,138.5,0,0,0,697.31,94c-1.16-2.39-2.37-4.77-3.73-7.06A60.14,60.14,0,0,0,689.21,80.22Z" opacity="0.2"/><path d="M749.86,110a86.49,86.49,0,0,0,.27,11.27,78.48,78.48,0,0,0,1.72,11.11c1.7,7.25,4.48,14.47,9.77,19.78a37.55,37.55,0,0,0,4.11,3.76c.72.59,1.47,1.12,2.24,1.72a24.6,24.6,0,0,1,2.12,2,18.61,18.61,0,0,1,5.13,10.14,19.59,19.59,0,0,1,.07,5.72A26.94,26.94,0,0,1,774,181a14.2,14.2,0,0,0-.84,5.48,10.19,10.19,0,0,0,.55,2.73,8.3,8.3,0,0,0,1.41,2.42,8.85,8.85,0,0,1-1.55-2.36,10.58,10.58,0,0,1-.67-2.77,14.61,14.61,0,0,1,.63-5.65,23.1,23.1,0,0,0,.92-11,18.25,18.25,0,0,0-5-9.64,22.5,22.5,0,0,0-2-1.86c-.72-.55-1.51-1.1-2.26-1.7a39.32,39.32,0,0,1-4.24-3.82,32.85,32.85,0,0,1-6.33-9.48,51.14,51.14,0,0,1-3.45-10.83A76.56,76.56,0,0,1,749.86,110Z" opacity="0.2"/><path d="M656.6,177s-1.85,9-12,17.58c0,0,9-.88,12-9.12,0,0-1,13.7,7.76,17.67,0,0-5.8-10.64,3-16.95C667.41,186.18,660.13,182,656.6,177Z" fill="#2f2e41"/><path d="M778.81,388.68s4.62,17.95,0,25.36c0,0,9.52,76.13-4.62,92.3s-27,39.75-99.72,31.67c0,0-21.56,1.35-27-23.58L629,447.71l15.6-18.85-27.76-53.47A49.07,49.07,0,0,0,603.32,359c-4.86-3.73-10.92-6.88-17.11-6.29,0,0,25.51-45.23,56.21-35.42,0,0,36.13,21.41,55,56C697.4,373.35,732.9,370.05,778.81,388.68Z" fill="#2f2e41"/><path d="M644.62,428.86c2.09-3.85,4-7.77,5.92-11.72s3.63-8,5.2-12a101.74,101.74,0,0,0,4.08-12.45,54,54,0,0,0,1.23-6.43,27.51,27.51,0,0,0,.16-6.54c.63,4.36-.06,8.79-1,13.06a96.64,96.64,0,0,1-4,12.54q-2.43,6.12-5.33,12C648.94,421.24,646.87,425.1,644.62,428.86Z" opacity="0.3"/><path d="M667.41,351.38a67,67,0,0,1,2.1,12.52,71.94,71.94,0,0,1-.17,12.71,59.42,59.42,0,0,1-2.6,12.45,52.78,52.78,0,0,1-5.35,11.5l1.46-2.81.73-1.41.6-1.46L665.4,392l1-3c.15-.5.34-1,.47-1.51l.37-1.53c.24-1,.55-2,.72-3.08l.54-3.12c.18-1,.25-2.09.38-3.14a77.2,77.2,0,0,0,.28-12.63c-.08-1.06-.14-2.11-.24-3.16s-.21-2.1-.37-3.15A63.2,63.2,0,0,0,667.41,351.38Z" opacity="0.3"/><path d="M768.8,454.46a51.28,51.28,0,0,1-10.5-4.85,62.76,62.76,0,0,1-9.39-6.81,68.22,68.22,0,0,1-8.06-8.33c-1.27-1.46-2.35-3.08-3.49-4.64s-2.07-3.27-3.12-4.9v0c-6.22-8.54-12.32-17.18-18.48-25.76l-9.22-12.9-9.15-12.94,9.36,12.79,9.3,12.84c6.19,8.57,12.44,17.09,18.56,25.71h0v0c1,1.62,2,3.31,3.07,4.89s2.18,3.17,3.44,4.63a66.24,66.24,0,0,0,8,8.34,67,67,0,0,0,9.28,6.86A51.44,51.44,0,0,0,768.8,454.46Z" opacity="0.3"/><path d="M718.27,392.48a145.81,145.81,0,0,1,16.24,2,148.25,148.25,0,0,1,15.94,3.79,91.66,91.66,0,0,1,15.23,6,45.33,45.33,0,0,1,13.13,9.7,40.35,40.35,0,0,0-6.32-5.14,55,55,0,0,0-7.07-4A98.66,98.66,0,0,0,750.23,399a161.89,161.89,0,0,0-15.83-3.93c-2.67-.55-5.35-1-8-1.45S721,392.77,718.27,392.48Z" opacity="0.2"/><path d="M775.13,428.86a90.51,90.51,0,0,1-16.39-2.9,70,70,0,0,1-15.49-6.14,43.76,43.76,0,0,1-6.89-4.72,31.4,31.4,0,0,1-5.71-6.09,28.67,28.67,0,0,1-3.76-7.45,31.48,31.48,0,0,1-1.24-8.23,31.17,31.17,0,0,0,1.48,8.15,28.28,28.28,0,0,0,3.83,7.3,32.5,32.5,0,0,0,5.69,6,43.56,43.56,0,0,0,6.85,4.63,72.21,72.21,0,0,0,15.34,6.21c2.66.77,5.36,1.42,8.08,2S772.37,428.57,775.13,428.86Z" opacity="0.3"/><path d="M775.13,454.46c-2.31-1.94-4.7-3.79-7.12-5.59s-4.9-3.53-7.47-5.1a55.27,55.27,0,0,0-8-4.23,27.84,27.84,0,0,0-4.27-1.44,13.45,13.45,0,0,0-4.47-.44,18.25,18.25,0,0,1,8.88,1.52,51.48,51.48,0,0,1,8.09,4.16c2.57,1.62,5.05,3.37,7.44,5.22S772.94,452.38,775.13,454.46Z" opacity="0.3"/><path d="M506,517.92a303.08,303.08,0,0,0,38.06-52.68s29.51,5.9,42.11,32.07c0,0-26.25,25-31.41,40,0,0-7.13,24.19-16.65,14.67,0,0-7.13-12.85-14.67-12.37,0,0,3.17-7.85-8.32-16.18Z" fill="#e6e7e8"/><path d="M559.57,575.72s-31.75,33.47-81.3,41.5c0,0-39.22,11.43-63.49-5.81a4.66,4.66,0,0,1-.78-6.94c3.18-3.51,9.31-9.27,20.24-16.46l48-54.62s2.85-26.27,23.8-15.47c0,0,19.44,6.83,17.42,21.72,0,0,6.81-1.59,14.68,12.38,0,0,8.06,10.47,16.65-14.67C554.8,537.35,561.27,541.84,559.57,575.72Z" fill="#544dcf"/><path d="M559.57,575.72s-31.75,33.47-81.3,41.5c0,0-39.22,11.43-63.49-5.81a4.66,4.66,0,0,1-.78-6.94c3.18-3.51,9.31-9.27,20.24-16.46l48-54.62s2.85-26.27,23.8-15.47c0,0,19.44,6.83,17.42,21.72,0,0,6.81-1.59,14.68,12.38,0,0,8.06,10.47,16.65-14.67C554.8,537.35,561.27,541.84,559.57,575.72Z" opacity="0.2"/><path d="M566,598.85a10.52,10.52,0,0,1-4.77,8.29l-10.94,7.12A35.24,35.24,0,0,1,530.78,618c-45.73,33.78-107.55,13.65-107.55,13.65-11-4.23-12.71-13.56-12.71-13.56-.42-16.1,3.48-13.6,3.48-13.6a4.66,4.66,0,0,0,.78,6.94c24.27,17.24,63.49,5.81,63.49,5.81,49.55-8,81.3-41.5,81.3-41.5C566.18,577.24,566.4,591,566,598.85Z" fill="#2f2e41"/><path d="M566,598.85a10.52,10.52,0,0,1-4.77,8.29l-10.94,7.12A35.24,35.24,0,0,1,530.78,618c-45.73,33.78-107.55,13.65-107.55,13.65-11-4.23-12.71-13.56-12.71-13.56-.42-16.1,3.48-13.6,3.48-13.6a4.66,4.66,0,0,0,.78,6.94c24.27,17.24,63.49,5.81,63.49,5.81,49.55-8,81.3-41.5,81.3-41.5C566.18,577.24,566.4,591,566,598.85Z" opacity="0.2"/><path d="M437.2,592.24a41.55,41.55,0,0,0,5.92,2c1,.29,2,.48,3,.71s2,.38,3.08.49a44.71,44.71,0,0,0,12.39,0,41.14,41.14,0,0,0,11.8-3.59c3.64-2,7.2-4.15,10.69-6.42a246.17,246.17,0,0,0,20.24-14.66l4.83-4c1.58-1.36,3.17-2.7,4.74-4.09l4.66-4.17,4.57-4.28-4.39,4.47-4.52,4.35c-1.52,1.42-3.1,2.8-4.65,4.2l-4.76,4.09a222.86,222.86,0,0,1-20.18,14.9c-3.53,2.26-7.09,4.43-10.82,6.39a39.61,39.61,0,0,1-12.1,3.54A45.72,45.72,0,0,1,437.2,592.24Z" fill="#fff"/><polygon points="484.2 542.7 497.33 526.75 510.45 534.02 497.33 551.17 484.2 542.7" fill="#fff"/><line x1="514.27" y1="547.78" x2="523.47" y2="539.64" fill="none" stroke="#fff" stroke-miterlimit="10"/><path d="M557.58,383.13s-4,23.67,7.81,44.65l16.86-29.67S570.61,386,557.58,383.13Z" fill="#2f2e41"/><path d="M557.58,383.13s-4,23.67,7.81,44.65l16.86-29.67S570.61,386,557.58,383.13Z" opacity="0.4"/><path d="M775.13,196.37c6.81,2.09,11.46,6.61,16.17,10.49a27.73,27.73,0,0,1,9.27,14.38c3.51,13.43,2.25,29.2,2.25,29.2L739.4,311.76c-.67-24-34-41.35-34-41.35s23.07-15.74,31.79-34C737.18,236.43,750.11,188.68,775.13,196.37Z" fill="#544dcf"/><path d="M775.13,196.37c6.81,2.09,11.46,6.61,16.17,10.49a27.73,27.73,0,0,1,9.27,14.38c3.51,13.43,2.25,29.2,2.25,29.2L739.4,311.76c-.67-24-34-41.35-34-41.35s23.07-15.74,31.79-34C737.18,236.43,750.11,188.68,775.13,196.37Z" opacity="0.2"/><path d="M747.16,228.9a35,35,0,0,1,16.65-8,20,20,0,0,1,2.31-.31l2.34-.14c.78,0,1.56.06,2.34.09.39,0,.78,0,1.17.07l1.15.2a28.85,28.85,0,0,1,8.82,2.9,32.65,32.65,0,0,0-8.87-2.52l-1.14-.16c-.39,0-.77,0-1.16-.06-.76,0-1.53-.08-2.3-.07l-2.3.16c-.77,0-1.52.23-2.28.33a35.85,35.85,0,0,0-8.79,2.73,42,42,0,0,0-4.1,2.14A31.18,31.18,0,0,0,747.16,228.9Z" opacity="0.2"/><path d="M760.83,210.27a37.24,37.24,0,0,0-6.6,3.43,43.73,43.73,0,0,0-10.89,10,47.66,47.66,0,0,0-4.06,6.24c.57-1.1,1.07-2.25,1.7-3.33s1.29-2.15,2-3.14a37.18,37.18,0,0,1,11-10.1A29.63,29.63,0,0,1,760.83,210.27Z" opacity="0.2"/><path d="M708.33,272.09l-19.12,15L562.73,289.3s-29.39-2.18-37,9.24c0,0-19,13.65-2.14,22.31,0,0,4.75.87,4.3-3.32,0,0,9.92,1.1,7.51-4.52,0,0-9.76-6.44,3.41-5.21,0,0,25.34,9.12,30.77-2.38,0,0,39.94,6.43,60.55,15.51,0,0,57.5,18.36,88.14,0L739,307.8S737.5,289,708.33,272.09Z" fill="#f9b499"/><path d="M397.8,272.09c1,1.47,1.81,2.93,2.85,4.22a7.37,7.37,0,0,0,3.89,2.89,3.92,3.92,0,0,1-2.64-.47,6.91,6.91,0,0,1-2-1.8,10.06,10.06,0,0,1-1.35-2.3A9,9,0,0,1,397.8,272.09Z" fill="#f7a48b"/><path d="M394.44,245.79c1.55,1.33,3.13,2.6,4.71,3.87s3.19,2.49,4.86,3.62a42.3,42.3,0,0,0,5.16,3.11,21.6,21.6,0,0,0,5.68,2,15.21,15.21,0,0,1-6-1.31,28.74,28.74,0,0,1-5.4-3,40.46,40.46,0,0,1-4.8-3.85A39.46,39.46,0,0,1,394.44,245.79Z" fill="#f7a48b"/><path d="M283.68,233.87l2.43.66s45.78,25.83,101.15,0l4.31,13.95s-22.06,14.8-60.19,12.81c0,0-30.78-1.57-51.44-13.32Z" fill="#2f2e41"/><path d="M348.89,223.29c2.32-1.18,4.68-2.26,7-3.32s4.75-2.08,7.14-3.09,4.8-2,7.23-2.86l3.65-1.36c1.23-.42,2.45-.87,3.69-1.26-1.16.6-2.34,1.14-3.5,1.71l-3.54,1.62c-2.36,1.07-4.75,2.08-7.15,3.08s-4.8,2-7.23,2.86S351.36,222.49,348.89,223.29Z" fill="#fff" opacity="0.5"/><path d="M275.09,95.12c.25,3.1.5,6.2.84,9.29s.66,6.17,1.08,9.25a128.58,128.58,0,0,0,3.53,18.22,30.61,30.61,0,0,0,3.51,8.43,9.74,9.74,0,0,0,1.44,1.68,6.79,6.79,0,0,0,.87.65l1,.63c1.32.83,2.6,1.72,3.86,2.65a62.42,62.42,0,0,1,7.16,6,27.25,27.25,0,0,1,3,3.62,8.79,8.79,0,0,1,1.67,4.32,9.16,9.16,0,0,0-1.89-4.17A25.89,25.89,0,0,0,298,152.3a62.23,62.23,0,0,0-7.26-5.76c-1.27-.87-2.57-1.72-3.88-2.54l-1-.61a8,8,0,0,1-1-.73,10.67,10.67,0,0,1-1.61-1.83,31.73,31.73,0,0,1-3.72-8.67,90.65,90.65,0,0,1-2-9.15c-.52-3.08-1-6.16-1.3-9.26C275.58,107.56,275.17,101.34,275.09,95.12Z" fill="#fff" opacity="0.5"/><path d="M367.7,198a30.07,30.07,0,0,1,4.8-1.88c1.64-.53,3.31-1,5-1.36s3.36-.75,5.05-1.07c.85-.17,1.69-.31,2.54-.46a11.19,11.19,0,0,0,1.23-.23l1.23-.35a48.28,48.28,0,0,0,9.34-4,52,52,0,0,0,8.42-5.76l0,0c1.1-1.08,2.18-2.18,3.3-3.25l3.33-3.21,0,0a6.72,6.72,0,0,0,1.52-2.36,16.15,16.15,0,0,0,.87-2.82,26,26,0,0,0,.43-2.94c.07-1,.12-2,.13-3,.06,1,.11,2,.08,3a23.22,23.22,0,0,1-.27,3,13.86,13.86,0,0,1-.74,2.95,7.27,7.27,0,0,1-1.63,2.67l0,0-3.22,3.33c-1.06,1.12-2.16,2.2-3.24,3.3h0v0a52.79,52.79,0,0,1-8.51,5.95,49.47,49.47,0,0,1-9.59,4c-.41.12-.83.24-1.26.34a12.13,12.13,0,0,1-1.29.24l-2.56.37c-1.69.26-3.38.56-5.06.88A56.45,56.45,0,0,0,367.7,198Z" fill="#fff" opacity="0.5"/><path d="M407.84,162.23a2.52,2.52,0,0,1,2.87-.76,2.43,2.43,0,0,1,1.13,1.31c.43,1.1,1.75,3.62,4.47,2.49,0,0,.72.61,1-1.86,0,0,.1-1.24,1.22,0,0,0,1.79,1,2-2.65,0,0,0-7-7.93-7.68,0,0-12.55-2.15-13.38,7.43a4.9,4.9,0,0,0,4.87,5,3.2,3.2,0,0,0,1.7-.29,1.75,1.75,0,0,0,1.09-1.3A2.89,2.89,0,0,1,407.84,162.23Z" fill="#2f2e41"/><path d="M409.94,178.83a4.56,4.56,0,0,1,2.15.38,5,5,0,0,1,1.84,1.29,5.18,5.18,0,0,1,.67.94,4.62,4.62,0,0,1,.38,1.08,4.27,4.27,0,0,1-.07,2.19,12.73,12.73,0,0,0-.67-2,5.71,5.71,0,0,0-1.05-1.59A11.39,11.39,0,0,0,409.94,178.83Z" fill="#fff" opacity="0.5"/><path d="M173.77,414.37a89.3,89.3,0,0,1,15.35-6.91,71.09,71.09,0,0,1,16.47-3.63,48.89,48.89,0,0,1,8.47,0,39.6,39.6,0,0,1,8.33,1.69,32.52,32.52,0,0,1,14.13,9.23,60,60,0,0,1,9.27,14.15,51.08,51.08,0,0,1,4.66,16.23,46.37,46.37,0,0,1-1.28,16.8,54.42,54.42,0,0,1-7,15.27,56.13,56.13,0,0,0,6.53-15.39,45.91,45.91,0,0,0,1-16.59,56.19,56.19,0,0,0-13.91-29.8,31.64,31.64,0,0,0-13.68-9,38.69,38.69,0,0,0-8.12-1.69,51.47,51.47,0,0,0-8.33,0,70.8,70.8,0,0,0-16.38,3.32A94.57,94.57,0,0,0,173.77,414.37Z" fill="#fff" opacity="0.5"/><path d="M279.94,390.59c2.08,4.7,4.06,9.45,6,14.21s3.85,9.54,5.78,14.3,3.75,9.58,5.56,14.4l2.71,7.22c.87,2.42,1.77,4.83,2.61,7.27-1.05-2.35-2.05-4.73-3.07-7.09l-3-7.12c-2-4.76-3.85-9.54-5.78-14.31s-3.75-9.58-5.56-14.39S281.64,395.45,279.94,390.59Z" fill="#fff" opacity="0.5"/><path d="M343.61,422.21c-.06-6.37,0-12.74,0-19.11s.14-12.73.23-19.1v-.34l.35-.11a34.65,34.65,0,0,0,5.65-2.46c.93-.46,1.81-1,2.72-1.5s1.76-1.1,2.65-1.65a87.5,87.5,0,0,0,9.88-7.62l2.34-2.07,2.25-2.17,1.13-1.08,1.09-1.13,2.16-2.26c1.42-1.53,2.8-3.11,4.2-4.66l4-4.82-3.79,5c-1.34,1.6-2.64,3.26-4,4.83l-2.12,2.32-1.06,1.16-1.11,1.12L368,368.81l-2.3,2.14a87.78,87.78,0,0,1-9.92,7.78,46.07,46.07,0,0,1-11.3,5.74l.36-.45c-.16,6.36-.27,12.73-.49,19.1S343.9,415.85,343.61,422.21Z" fill="#fff" opacity="0.5"/><ellipse cx="728.98" cy="138.81" rx="15.48" ry="11.35" transform="translate(388.55 798.2) rotate(-73.47)" fill="#f9b499"/><path d="M731.32,78.59a19,19,0,0,1,4.86,6.13A41.48,41.48,0,0,1,739.25,92a74.33,74.33,0,0,1,3,15.49,125.65,125.65,0,0,1,.42,15.76l-.16,3.94,0,1-.12,1-.25,2c-.14,1.36-.4,2.57-.55,3.87s-.3,2.56-.41,3.85a59.8,59.8,0,0,0,.56,15.36,28.75,28.75,0,0,0,6,13.77,19.2,19.2,0,0,0,2.71,2.62l1.55,1.12c.55.38,1.08.78,1.6,1.19a38.71,38.71,0,0,1,5.71,5.52,26.06,26.06,0,0,1,4.15,6.75,16.58,16.58,0,0,1,1.27,7.73,17.41,17.41,0,0,0-1.76-7.52,25.83,25.83,0,0,0-4.39-6.32,38.37,38.37,0,0,0-5.77-5.11c-.52-.38-1.05-.74-1.59-1.09l-1.66-1.14a19.75,19.75,0,0,1-3-2.72,23.22,23.22,0,0,1-2.47-3.21,27.71,27.71,0,0,1-1.89-3.57,36.59,36.59,0,0,1-2.37-7.67,60.42,60.42,0,0,1-.69-15.88c.11-1.32.26-2.63.44-3.94s.45-2.65.58-3.89l.25-1.89.12-1,.05-1,.19-3.89c.2-2.6.14-5.2.18-7.79,0-1.3-.06-2.6-.09-3.89s0-2.6-.17-3.89l-.33-3.88c-.12-1.29-.34-2.56-.5-3.85s-.44-2.55-.67-3.83-.57-2.52-.89-3.78A40.55,40.55,0,0,0,735.71,85a26.15,26.15,0,0,0-1.89-3.39A13.75,13.75,0,0,0,731.32,78.59Z" fill="#2f2e41"/><path d="M731.32,78.59a19,19,0,0,1,4.86,6.13A41.48,41.48,0,0,1,739.25,92a74.33,74.33,0,0,1,3,15.49,125.65,125.65,0,0,1,.42,15.76l-.16,3.94,0,1-.12,1-.25,2c-.14,1.36-.4,2.57-.55,3.87s-.3,2.56-.41,3.85a59.8,59.8,0,0,0,.56,15.36,28.75,28.75,0,0,0,6,13.77,19.2,19.2,0,0,0,2.71,2.62l1.55,1.12c.55.38,1.08.78,1.6,1.19a38.71,38.71,0,0,1,5.71,5.52,26.06,26.06,0,0,1,4.15,6.75,16.58,16.58,0,0,1,1.27,7.73,17.41,17.41,0,0,0-1.76-7.52,25.83,25.83,0,0,0-4.39-6.32,38.37,38.37,0,0,0-5.77-5.11c-.52-.38-1.05-.74-1.59-1.09l-1.66-1.14a19.75,19.75,0,0,1-3-2.72,23.22,23.22,0,0,1-2.47-3.21,27.71,27.71,0,0,1-1.89-3.57,36.59,36.59,0,0,1-2.37-7.67,60.42,60.42,0,0,1-.69-15.88c.11-1.32.26-2.63.44-3.94s.45-2.65.58-3.89l.25-1.89.12-1,.05-1,.19-3.89c.2-2.6.14-5.2.18-7.79,0-1.3-.06-2.6-.09-3.89s0-2.6-.17-3.89l-.33-3.88c-.12-1.29-.34-2.56-.5-3.85s-.44-2.55-.67-3.83-.57-2.52-.89-3.78A40.55,40.55,0,0,0,735.71,85a26.15,26.15,0,0,0-1.89-3.39A13.75,13.75,0,0,0,731.32,78.59Z" opacity="0.2"/><path d="M614.51,465.24s-15.53-72.7-56.93-82.11l28.63-30.4s11.33-2.66,27.63,16.84l30.78,59.29Z" fill="#2f2e41"/><path d="M614.51,465.24s-15.53-72.7-56.93-82.11l28.63-30.4s11.33-2.66,27.63,16.84l30.78,59.29Z" opacity="0.2"/><path d="M544.1,465.24l38.15-67.13s19.81,18.42,32.26,67.13l-28.3,32.07S574.23,471.24,544.1,465.24Z" fill="#f9b499"/><path d="M394.21,285.07s-7.45-1.44-13.73-13c0,0-11.23-13-5.4-21.42,0,0,5.68-14.76,12.13-8.59,0,0,2.84,2.79-2.36,10.88,0,0,7.84-7.81,13.8-1.44,0,0,1.74,4.44-4.71,7,0,0,5.54-3.86,7.62-.19,0,0,5.8,3.23-2,9.7,0,0,9.84-6.45,9.55.78,0,0,0,4.85-7.46,10.57A9.55,9.55,0,0,1,394.21,285.07Z" fill="#f9b499"/><path d="M384.85,252.93a24.69,24.69,0,0,1-2.66,4.57,25.14,25.14,0,0,1-3.48,4,24.18,24.18,0,0,1,2.67-4.57A25.07,25.07,0,0,1,384.85,252.93Z" fill="#f7a48b"/><path d="M393.94,258.49a64.59,64.59,0,0,1-5.73,6.29,63.34,63.34,0,0,1-6.43,5.58,63.34,63.34,0,0,1,5.73-6.29A64.61,64.61,0,0,1,393.94,258.49Z" fill="#f7a48b"/><path d="M399.54,268a43.19,43.19,0,0,1-8.29,10.16,37.17,37.17,0,0,1,3.76-5.4A38.36,38.36,0,0,1,399.54,268Z" fill="#f7a48b"/></svg>